<?xml version="1.0" standalone="no"?>
<!DOCTYPE svg PUBLIC "-//W3C//DTD SVG 20010904//EN"
 "http://www.w3.org/TR/2001/REC-SVG-20010904/DTD/svg10.dtd">
<svg version="1.0" xmlns="http://www.w3.org/2000/svg"
 width="1024.000000pt" height="1024.000000pt" viewBox="0 0 1024.000000 1024.000000"
 preserveAspectRatio="xMidYMid meet">

<g transform="translate(0.000000,1024.000000) scale(0.100000,-0.100000)"
fill="#000000" stroke="none">
<path d="M5025 9187 c-56 -15 -94 -34 -144 -71 -49 -36 -546 -531 -592 -588
-54 -68 -72 -132 -67 -232 7 -142 6 -141 431 -551 158 -152 258 -241 297 -263
71 -40 149 -54 227 -42 110 18 152 48 373 264 113 111 252 245 308 300 131
126 166 191 167 305 0 97 -23 163 -78 227 -23 27 -166 171 -317 320 -235 231
-285 275 -341 303 -78 38 -182 49 -264 28z m193 -372 c15 -10 115 -106 223
-214 290 -289 290 -272 5 -560 -105 -106 -211 -207 -235 -222 -52 -34 -109
-38 -158 -11 -17 9 -125 109 -240 222 -303 296 -303 281 -19 568 105 106 206
203 225 215 63 38 140 39 199 2z"/>
<path d="M5085 8449 c-17 -5 -44 -22 -60 -39 -26 -28 -30 -38 -30 -91 0 -57 2
-63 37 -95 32 -29 45 -34 85 -34 112 0 178 115 118 206 -28 43 -99 68 -150 53z"/>
<path d="M4074 9098 c-136 -36 -110 -240 31 -240 78 0 131 61 122 140 -8 75
-77 120 -153 100z"/>
<path d="M6062 9080 c-56 -34 -69 -112 -29 -171 44 -66 133 -70 193 -8 25 26
29 38 28 81 0 45 -5 55 -37 84 -30 28 -45 34 -79 34 -25 0 -57 -8 -76 -20z"/>
<path d="M3180 8865 c-30 -9 -75 -27 -100 -42 -25 -14 -201 -181 -403 -382
-325 -323 -361 -363 -393 -427 -102 -204 -40 -432 157 -580 22 -17 27 -29 31
-89 7 -89 38 -170 93 -242 43 -57 388 -404 656 -659 190 -182 277 -225 448
-225 159 0 310 68 464 211 l69 63 206 -205 c289 -287 549 -539 599 -581 130
-108 276 -122 438 -43 112 56 330 271 373 369 26 61 11 140 -36 190 -39 42
-75 57 -130 57 -62 0 -98 -23 -169 -110 -30 -36 -70 -85 -90 -109 -66 -79
-154 -99 -238 -54 -19 10 -204 185 -412 389 -208 204 -452 443 -543 532 -211
206 -266 237 -385 212 -80 -17 -128 -57 -155 -127 -37 -98 -12 -178 77 -245
61 -46 73 -64 73 -106 0 -91 -138 -142 -248 -92 -69 31 -696 647 -727 715 -27
56 -26 148 2 201 12 23 50 68 83 100 73 69 90 99 90 153 0 72 -80 141 -162
141 -57 -1 -95 -23 -172 -98 l-64 -63 -12 37 c-15 44 -9 107 14 155 9 20 142
160 299 315 300 299 308 304 403 304 76 -1 119 -32 319 -229 104 -104 205
-196 224 -206 25 -12 50 -16 89 -13 49 4 60 10 93 45 41 45 55 91 44 151 -6
32 -40 70 -253 280 -216 212 -256 247 -320 279 -67 33 -80 37 -175 40 -70 2
-119 -2 -157 -12z"/>
<path d="M6810 8866 c-103 -28 -140 -56 -377 -290 -284 -279 -301 -307 -250
-406 30 -61 76 -90 141 -90 64 0 101 22 177 104 131 141 312 312 347 328 51
24 117 22 170 -3 44 -22 524 -481 589 -563 55 -71 64 -154 26 -231 -24 -47
-273 -295 -318 -316 -50 -23 -101 -24 -142 -1 -18 9 -121 103 -229 207 -108
105 -222 209 -252 232 -167 125 -406 132 -601 18 -176 -103 -365 -306 -447
-480 -16 -33 -33 -62 -37 -64 -33 -14 -79 -70 -97 -117 -41 -111 -20 -232 56
-312 24 -25 44 -51 44 -57 0 -6 20 -52 43 -101 51 -103 136 -213 243 -313 267
-250 465 -305 694 -194 71 34 98 59 466 427 654 654 855 863 891 932 83 155
83 324 0 463 -34 57 -708 728 -781 778 -86 58 -244 80 -356 49z m-326 -1261
c54 -23 152 -101 261 -208 83 -82 110 -116 137 -172 30 -63 33 -79 33 -160 0
-83 -3 -96 -34 -159 -28 -58 -60 -95 -185 -219 -179 -177 -218 -201 -321 -201
-98 0 -158 33 -304 169 -192 179 -249 371 -172 575 58 152 276 355 417 389 45
11 124 4 168 -14z"/>
<path d="M6279 7247 c-54 -28 -105 -101 -114 -160 -25 -165 152 -296 305 -226
58 26 77 44 106 101 54 107 12 232 -98 289 -53 27 -142 26 -199 -4z"/>
<path d="M3716 7830 c-139 -30 -196 -63 -348 -205 -74 -69 -143 -143 -155
-166 -71 -130 44 -278 186 -239 43 11 72 36 164 142 77 89 156 129 266 136 90
5 164 -13 227 -55 23 -16 264 -244 536 -509 529 -514 516 -504 599 -488 74 15
125 58 139 121 19 81 28 71 -532 629 -520 518 -523 521 -614 567 -153 78 -312
101 -468 67z"/>
<path d="M7481 6519 c-78 -15 -169 -65 -237 -131 -118 -113 -170 -243 -162
-410 4 -78 9 -96 46 -172 92 -184 266 -296 462 -296 137 0 247 47 351 150 101
101 149 216 149 360 0 148 -45 255 -151 361 -125 125 -283 172 -458 138z m195
-344 c57 -34 94 -96 94 -159 0 -67 -25 -113 -79 -147 -122 -78 -285 5 -285
146 0 143 149 231 270 160z"/>
<path d="M2613 6366 c-218 -42 -413 -229 -464 -446 -18 -80 -16 -233 5 -305
57 -195 217 -350 422 -411 81 -24 231 -24 304 0 209 69 364 229 415 431 19 76
19 215 0 290 -51 194 -214 366 -402 425 -85 26 -193 32 -280 16z m219 -334
c54 -24 118 -86 143 -137 30 -62 32 -160 5 -223 -43 -100 -152 -172 -261 -172
-97 0 -214 81 -254 176 -21 49 -23 125 -6 187 15 53 84 138 132 163 73 37 166
40 241 6z"/>
<path d="M4030 6079 c-66 -27 -144 -103 -176 -174 -13 -28 -32 -100 -42 -161
-10 -60 -23 -117 -29 -127 -5 -11 -185 -195 -399 -410 -406 -409 -419 -424
-450 -540 -54 -203 61 -424 275 -530 l84 -42 121 0 c106 0 128 3 176 25 79 34
157 89 216 152 l51 54 129 -120 c70 -67 275 -264 454 -438 370 -360 403 -389
483 -428 133 -64 271 -62 409 7 75 38 78 41 563 507 510 490 529 512 556 659
12 63 11 66 -19 132 -26 54 -56 91 -154 190 -143 143 -187 170 -284 168 -131
-2 -234 -102 -234 -229 0 -70 20 -114 76 -163 52 -45 112 -64 180 -54 l47 6
-8 -49 c-24 -166 -197 -279 -371 -244 -83 17 -146 54 -214 126 -124 134 -143
315 -48 483 21 38 98 123 233 258 234 235 272 260 376 250 38 -3 75 -14 103
-31 37 -21 267 -241 683 -651 101 -99 117 -140 87 -213 -15 -35 -39 -63 -97
-111 -58 -48 -80 -74 -88 -102 -43 -143 115 -246 268 -175 98 46 236 210 268
320 30 101 11 226 -48 319 -37 57 -93 115 -385 399 -121 119 -192 195 -192
207 0 60 64 114 128 109 39 -3 59 -22 446 -405 248 -247 413 -418 426 -443 30
-59 35 -117 15 -186 -16 -57 -26 -68 -293 -337 -153 -153 -296 -290 -319 -303
-51 -31 -143 -35 -194 -9 -19 10 -88 71 -155 135 -129 127 -153 140 -231 125
-50 -9 -118 -77 -127 -127 -14 -78 4 -108 150 -250 74 -73 157 -149 184 -169
135 -101 314 -115 472 -36 54 26 116 84 416 381 194 193 366 370 382 395 90
134 104 321 35 463 -42 87 -91 141 -397 438 -216 210 -333 316 -408 369 -58
41 -154 123 -215 181 -132 128 -159 144 -240 144 -81 -1 -111 -18 -231 -136
l-101 -99 -77 55 c-120 86 -246 113 -379 82 -123 -29 -156 -53 -393 -287 -189
-186 -227 -219 -264 -229 -85 -23 -99 -13 -370 254 -658 650 -632 628 -744
633 -44 2 -76 -3 -116 -18z m618 -819 c187 -183 326 -326 331 -343 15 -41 -6
-97 -46 -120 -38 -22 -100 -25 -136 -6 -30 16 -546 514 -594 574 -37 45 -44
105 -19 154 24 46 85 76 127 61 9 -3 161 -147 337 -320z m-689 -132 c45 -14
479 -433 503 -486 23 -50 22 -114 -2 -163 -28 -53 -72 -79 -136 -79 -89 0
-156 65 -169 163 -13 99 -53 165 -130 216 -35 23 -50 26 -125 26 -68 0 -93 -5
-126 -22 -66 -35 -132 -110 -174 -198 -56 -116 -92 -145 -186 -145 -52 0 -59
3 -94 38 -48 48 -59 96 -36 156 12 32 67 92 229 253 116 116 228 219 247 228
66 34 119 38 199 13z m1286 -867 c59 -26 138 -100 168 -156 14 -28 22 -65 25
-121 4 -73 1 -88 -23 -142 -29 -64 -95 -136 -152 -166 -72 -37 -206 -36 -281
3 -93 48 -168 158 -179 264 -10 98 45 224 124 284 85 65 216 79 318 34z"/>
<path d="M2460 4873 c-57 -28 -143 -122 -178 -193 -86 -178 -55 -366 86 -522
31 -35 197 -201 367 -369 334 -329 366 -353 493 -380 103 -21 242 6 328 65 58
39 331 314 344 347 15 36 6 104 -20 146 -23 39 -87 73 -135 73 -58 0 -108 -34
-207 -141 -51 -55 -110 -109 -130 -120 -53 -27 -142 -26 -196 4 -50 26 -576
546 -599 591 -44 84 -33 172 31 243 54 60 66 83 66 125 0 112 -139 184 -250
131z"/>
<path d="M4082 3529 c-18 -4 -44 -17 -58 -30 -80 -76 -24 -219 86 -219 39 0
83 22 102 52 65 99 -16 222 -130 197z"/>
<path d="M6084 3526 c-68 -30 -95 -116 -59 -186 44 -86 183 -75 221 17 28 66
-4 141 -72 169 -41 17 -50 17 -90 0z"/>
<path d="M2763 2703 l-33 -4 0 -630 0 -630 134 2 133 2 8 223 c4 122 4 228 0
233 -4 8 54 11 189 11 l196 0 0 119 c0 99 -3 120 -16 125 -9 3 -94 6 -190 6
l-174 0 0 145 0 145 274 0 274 0 6 23 c3 12 6 68 6 123 l0 102 -31 6 c-34 6
-722 6 -776 -1z"/>
<path d="M3850 2381 c-292 -93 -429 -444 -278 -710 130 -228 406 -312 632
-193 386 202 341 767 -72 904 -72 24 -207 23 -282 -1z m227 -252 c118 -57 162
-206 101 -337 -52 -110 -202 -148 -307 -79 -81 54 -119 203 -77 302 49 115
176 166 283 114z"/>
<path d="M5040 2387 c-21 -6 -62 -38 -102 -79 l-68 -68 0 70 0 70 -134 0 -133
0 4 -467 c2 -257 5 -469 8 -471 2 -2 60 -1 129 3 l125 7 3 272 3 271 28 48
c31 52 73 83 124 93 48 9 86 -3 132 -42 l41 -35 25 58 c15 32 39 95 55 140 27
77 28 82 11 97 -45 41 -171 58 -251 33z"/>
<path d="M5751 2383 c-25 -9 -64 -36 -88 -61 l-43 -44 6 51 6 51 -136 0 -136
0 2 -467 3 -468 124 2 c68 1 126 5 129 8 3 3 7 141 9 306 3 262 5 305 20 330
24 40 75 62 131 56 54 -6 90 -38 102 -93 5 -21 10 -168 10 -326 l0 -288 33 0
c17 0 76 3 130 7 l97 6 0 304 c0 269 2 308 17 334 22 37 69 59 126 59 55 0 92
-27 106 -76 6 -20 8 -151 5 -317 -2 -155 -1 -288 4 -295 9 -14 42 -16 170 -14
l82 2 0 353 c0 418 -2 430 -83 512 -62 62 -122 85 -217 85 -95 0 -155 -23
-217 -85 l-51 -52 -24 36 c-13 19 -45 49 -72 66 -42 26 -60 30 -125 32 -50 2
-91 -3 -120 -14z"/>
<path d="M7011 2379 c-89 -29 -172 -110 -196 -194 -33 -112 0 -230 82 -291 44
-33 130 -69 250 -104 82 -23 103 -40 103 -80 0 -44 -31 -60 -115 -60 -60 0
-82 5 -142 34 -39 19 -74 39 -77 45 -15 23 -32 9 -77 -62 -75 -116 -74 -112
-37 -140 150 -112 380 -139 542 -63 105 48 166 143 166 255 0 85 -16 134 -62
186 -48 55 -94 77 -237 114 -123 33 -151 49 -151 91 0 41 32 63 98 68 50 3 66
-1 127 -32 38 -19 70 -34 71 -33 53 85 112 193 108 199 -8 13 -102 58 -153 74
-69 21 -222 17 -300 -7z"/>
</g>
</svg>
